HIERARCHY
ROOT Hips
{
    OFFSET   0.000000   0.000000   0.000000
    CHANNELS 6 Xposition Yposition Zposition Zrotation Xrotation Yrotation
    JOINT Chest
    {
        OFFSET   0.000000   8.007230   0.000000
        CHANNELS 3 Zrotation Xrotation Yrotation
        JOINT Chest2
        {
            OFFSET   0.000000  22.077100   0.000000
            CHANNELS 3 Zrotation Xrotation Yrotation
            JOINT Neck
            {
                OFFSET   0.000000  23.255100   0.000000
                CHANNELS 3 Zrotation Xrotation Yrotation
                JOINT Head
                {
                    OFFSET   0.000000  14.370100   1.956600
                    CHANNELS 3 Zrotation Xrotation Yrotation
                    End Site
                    {
                        OFFSET   0.000000  19.566000   0.000000
                    }
                }
            }
            JOINT LeftCollar
            {
                OFFSET   3.911900  19.017000  -0.467063
                CHANNELS 3 Zrotation Xrotation Yrotation
                JOINT LeftShoulder
                {
                    OFFSET  10.383700   0.000000   0.000000
                    CHANNELS 3 Zrotation Xrotation Yrotation
                    JOINT LeftElbow
                    {
                        OFFSET  26.662100   0.001193   0.000980
                        CHANNELS 3 Zrotation Xrotation Yrotation
                        JOINT LeftWrist
                        {
                            OFFSET  28.869000  -0.000059  -0.000082
                            CHANNELS 3 Zrotation Xrotation Yrotation
                            JOINT LeftFinger0
                            {
                                OFFSET   2.044650  -2.323450   3.252850
                                CHANNELS 3 Zrotation Xrotation Yrotation
                                JOINT LeftFinger01
                                {
                                    OFFSET   3.088130   0.000000   0.000000
                                    CHANNELS 3 Zrotation Xrotation Yrotation
                                    JOINT LeftFinger02
                                    {
                                        OFFSET   2.639460   0.000000   0.000000
                                        CHANNELS 3 Zrotation Xrotation Yrotation
                                        End Site
                                        {
                                            OFFSET   2.582190   0.000000   0.000000
                                        }
                                    }
                                }
                            }
                            JOINT LeftFinger1
                            {
                                OFFSET   8.364480   0.000000   3.252850
                                CHANNELS 3 Zrotation Xrotation Yrotation
                                JOINT LeftFinger11
                                {
                                    OFFSET   4.646930   0.000000   0.000000
                                    CHANNELS 3 Zrotation Xrotation Yrotation
                                    JOINT LeftFinger12
                                    {
                                        OFFSET   2.323470   0.000000   0.000000
                                        CHANNELS 3 Zrotation Xrotation Yrotation
                                        End Site
                                        {
                                            OFFSET   2.273050   0.000000   0.000000
                                        }
                                    }
                                }
                            }
                            JOINT LeftFinger2
                            {
                                OFFSET   8.364490   0.000016   1.078090
                                CHANNELS 3 Zrotation Xrotation Yrotation
                                JOINT LeftFinger21
                                {
                                    OFFSET   5.111610   0.000000   0.000000
                                    CHANNELS 3 Zrotation Xrotation Yrotation
                                    JOINT LeftFinger22
                                    {
                                        OFFSET   2.788150   0.000016   0.000000
                                        CHANNELS 3 Zrotation Xrotation Yrotation
                                        End Site
                                        {
                                            OFFSET   2.727660   0.000000   0.000000
                                        }
                                    }
                                }
                            }
                            JOINT LeftFinger3
                            {
                                OFFSET   7.899780   0.000015  -1.078090
                                CHANNELS 3 Zrotation Xrotation Yrotation
                                JOINT LeftFinger31
                                {
                                    OFFSET   4.646930   0.000000   0.000000
                                    CHANNELS 3 Zrotation Xrotation Yrotation
                                    JOINT LeftFinger32
                                    {
                                        OFFSET   2.323470   0.000000   0.000000
                                        CHANNELS 3 Zrotation Xrotation Yrotation
                                        End Site
                                        {
                                            OFFSET   2.273050   0.000000   0.000000
                                        }
                                    }
                                }
                            }
                            JOINT LeftFinger4
                            {
                                OFFSET   7.435090   0.000000  -3.252850
                                CHANNELS 3 Zrotation Xrotation Yrotation
                                JOINT LeftFinger41
                                {
                                    OFFSET   3.717550   0.000000   0.000000
                                    CHANNELS 3 Zrotation Xrotation Yrotation
                                    JOINT LeftFinger42
                                    {
                                        OFFSET   1.858770   0.000000   0.000000
                                        CHANNELS 3 Zrotation Xrotation Yrotation
                                        End Site
                                        {
                                            OFFSET   1.818440   0.000000   0.000000
                                        }
                                    }
                                }
                            }
                        }
                    }
                }
            }
            JOINT RightCollar
            {
                OFFSET  -3.911910  19.017000  -0.467062
                CHANNELS 3 Zrotation Xrotation Yrotation
                JOINT RightShoulder
                {
                    OFFSET -10.383700   0.000014   0.000000
                    CHANNELS 3 Zrotation Xrotation Yrotation
                    JOINT RightElbow
                    {
                        OFFSET -26.662100   0.001225   0.001091
                        CHANNELS 3 Zrotation Xrotation Yrotation
                        JOINT RightWrist
                        {
                            OFFSET -28.869000  -0.000020  -0.000085
                            CHANNELS 3 Zrotation Xrotation Yrotation
                            JOINT RightFinger0
                            {
                                OFFSET  -2.044650  -2.323490   3.252850
                                CHANNELS 3 Zrotation Xrotation Yrotation
                                JOINT RightFinger01
                                {
                                    OFFSET  -3.088130   0.000000   0.000000
                                    CHANNELS 3 Zrotation Xrotation Yrotation
                                    JOINT RightFinger02
                                    {
                                        OFFSET  -2.639460   0.000000   0.000000
                                        CHANNELS 3 Zrotation Xrotation Yrotation
                                        End Site
                                        {
                                            OFFSET  -2.582190   0.000000   0.000000
                                        }
                                    }
                                }
                            }
                            JOINT RightFinger1
                            {
                                OFFSET  -8.364480   0.000000   3.252850
                                CHANNELS 3 Zrotation Xrotation Yrotation
                                JOINT RightFinger11
                                {
                                    OFFSET  -4.646930   0.000000   0.000000
                                    CHANNELS 3 Zrotation Xrotation Yrotation
                                    JOINT RightFinger12
                                    {
                                        OFFSET  -2.323470   0.000000   0.000000
                                        CHANNELS 3 Zrotation Xrotation Yrotation
                                        End Site
                                        {
                                            OFFSET  -2.273050   0.000000   0.000000
                                        }
                                    }
                                }
                            }
                            JOINT RightFinger2
                            {
                                OFFSET  -8.364480   0.000000   1.078090
                                CHANNELS 3 Zrotation Xrotation Yrotation
                                JOINT RightFinger21
                                {
                                    OFFSET  -5.111620   0.000000   0.000000
                                    CHANNELS 3 Zrotation Xrotation Yrotation
                                    JOINT RightFinger22
                                    {
                                        OFFSET  -2.788160   0.000000   0.000000
                                        CHANNELS 3 Zrotation Xrotation Yrotation
                                        End Site
                                        {
                                            OFFSET  -2.727660   0.000000   0.000000
                                        }
                                    }
                                }
                            }
                            JOINT RightFinger3
                            {
                                OFFSET  -7.899780   0.000000  -1.078090
                                CHANNELS 3 Zrotation Xrotation Yrotation
                                JOINT RightFinger31
                                {
                                    OFFSET  -4.646930   0.000000   0.000000
                                    CHANNELS 3 Zrotation Xrotation Yrotation
                                    JOINT RightFinger32
                                    {
                                        OFFSET  -2.323470   0.000000   0.000000
                                        CHANNELS 3 Zrotation Xrotation Yrotation
                                        End Site
                                        {
                                            OFFSET  -2.273050   0.000000   0.000000
                                        }
                                    }
                                }
                            }
                            JOINT RightFinger4
                            {
                                OFFSET  -7.435090   0.000000  -3.252850
                                CHANNELS 3 Zrotation Xrotation Yrotation
                                JOINT RightFinger41
                                {
                                    OFFSET  -3.717550   0.000000   0.000000
                                    CHANNELS 3 Zrotation Xrotation Yrotation
                                    JOINT RightFinger42
                                    {
                                        OFFSET  -1.858760   0.000000   0.000000
                                        CHANNELS 3 Zrotation Xrotation Yrotation
                                        End Site
                                        {
                                            OFFSET  -1.818440   0.000000   0.000000
                                        }
                                    }
                                }
                            }
                        }
                    }
                }
            }
        }
    }
    JOINT LeftHip
    {
        OFFSET   9.783030   0.000000   0.000000
        CHANNELS 3 Zrotation Xrotation Yrotation
        JOINT LeftKnee
        {
            OFFSET   0.000063 -41.789100   0.000608
            CHANNELS 3 Zrotation Xrotation Yrotation
            JOINT LeftAnkle
            {
                OFFSET   0.000048 -41.133200  -0.000184
                CHANNELS 3 Zrotation Xrotation Yrotation
                JOINT LeftToe
                {
                    OFFSET   0.000000  -6.358960  14.674500
                    CHANNELS 3 Zrotation Xrotation Yrotation
                    End Site
                    {
                        OFFSET   0.000000   0.000000   3.913200
                    }
                }
            }
        }
    }
    JOINT RightHip
    {
        OFFSET  -9.783030   0.000000   0.000000
        CHANNELS 3 Zrotation Xrotation Yrotation
        JOINT RightKnee
        {
            OFFSET   0.000071 -41.789100   0.001239
            CHANNELS 3 Zrotation Xrotation Yrotation
            JOINT RightAnkle
            {
                OFFSET   0.000037 -41.133200  -0.000166
                CHANNELS 3 Zrotation Xrotation Yrotation
                JOINT RightToe
                {
                    OFFSET   0.000000  -6.358960  14.674500
                    CHANNELS 3 Zrotation Xrotation Yrotation
                    End Site
                    {
                        OFFSET   0.000000   0.000000   3.913200
                    }
                }
            }
        }
    }
}
MOTION
Frames: 5
Frame Time:   0.016667
  2.017820  89.430900  -0.208362  -6.021750 -16.826300  -5.723210   0.648459   9.972000   2.956710   0.782540  19.964100   5.935270   2.610690   1.402770  -0.063957   4.296060   2.827300  -2.854040  -2.187680  -3.273660   0.603335 -70.349200  27.611600  -6.050640  -2.807450  -8.121580 -15.826800  14.567100  -9.513790   4.181350  34.929600  28.622200 -60.783300 -35.015300   0.002155   0.001535 -12.507700   0.000776  -0.001791 -29.565300   4.999460  -8.733810 -24.502300   0.003675  -0.002157 -17.151600   0.005818  -0.001521 -28.674300   2.248570  -4.103660 -40.369500   0.003442  -0.000722 -26.886100   0.000471   0.002056 -28.540200   1.761980  -3.235570 -37.294200  -0.000344   0.004461 -24.837900   0.000000   0.003389 -32.443600   0.793169  -1.247580 -48.678300   0.002861   0.000883 -32.419700   0.000601  -0.002538   7.761030  -3.477460  10.526700  52.568600  22.631300  27.050200 -31.572600 -18.338300  69.446900 -21.201900 -36.538800  -6.725920 -54.577800  31.617000  51.862800 -12.891000  -0.001951  -0.000857 -11.445500  -0.004049  -0.001384   9.427230   0.115702   0.697526   7.713660   0.000200  -0.002509   5.399540   0.000000  -0.002006   6.308030   0.077607   0.702670   6.308340   0.003548  -0.003483   4.201350   0.003134  -0.002685   5.359000  -0.434856  -4.635350   5.376550   0.009044  -0.006479   3.580800   0.005502  -0.005130  14.279900  -1.234880  -4.840170  21.498200   0.001679  -0.002109  14.317800   0.004890  -0.008938   3.156390  19.973000   5.779230   0.112616   0.000780   6.520400  -0.701952  -3.546350   1.287420   0.000000   0.000000   0.000000   3.873710  17.353500  -0.362600  -1.595640   5.050580  -7.617670   1.336140  -5.224050   1.223150  -0.000000   0.000000   0.000000
  2.048670  89.433400  -0.215799  -5.971630 -16.781800  -5.620230   0.650030   9.939720   2.951470   0.787867  19.899600   5.924010   2.570070   1.357040  -0.060940   4.228750   2.735270  -2.862750  -2.208290  -3.252060   0.609889 -70.357300  27.282600  -5.873510  -2.785460  -7.962950 -15.980300  14.557200  -9.629190   4.183390  35.070600  28.870100 -60.887300 -34.959000   0.002229   0.001591 -12.479500   0.000812  -0.001838 -29.508600   5.005440  -8.765920 -24.457000   0.003655  -0.002148 -17.119900   0.005861  -0.001483 -28.669900   2.278260  -4.158510 -40.296400   0.003401  -0.000725 -26.837400   0.000443   0.002028 -28.534400   1.785730  -3.280130 -37.213900  -0.000311   0.004454 -24.784500   0.000051   0.003427 -32.385400   0.804838  -1.268710 -48.591400   0.002875   0.000905 -32.361800   0.000597  -0.002492   7.758020  -3.500820  10.463100  52.597700  22.620700  27.028000 -31.572600 -18.313600  69.509100 -21.322300 -36.405000  -6.795530 -54.585400  31.614300  51.829000 -12.807500  -0.002141  -0.000712 -11.403800  -0.004176  -0.001382   9.489790   0.108665   0.650111   7.764800   0.000485  -0.002421   5.435340   0.000165  -0.001935   6.403570   0.073490   0.654691   6.403700   0.003499  -0.003577   4.264860   0.002753  -0.002755   5.507340  -0.461375  -4.807070   5.526930   0.009483  -0.006725   3.680960   0.005681  -0.005317  14.279700  -1.278230  -5.014640  21.507700   0.001687  -0.001999  14.324100   0.005000  -0.009266   3.144630  19.869500   5.747930   0.093084   0.056116   6.534490  -0.732902  -3.560170   1.208190   0.000000   0.000000   0.000000   3.819270  17.337500  -0.373270  -1.562490   4.964790  -7.661600   1.337020  -5.180660   1.203040  -0.000000   0.000000  -0.000000
  2.072010  89.437500  -0.227450  -5.930780 -16.734100  -5.526770   0.651835   9.906240   2.950060   0.794230  19.832900   5.919950   2.530050   1.307360  -0.057668   4.162400   2.635220  -2.883600  -2.232090  -3.239810   0.612424 -70.376300  27.119800  -5.747540  -2.760260  -7.824910 -16.098500  14.561600  -9.715470   4.188760  35.184300  29.071200 -60.990300 -34.930800   0.002302   0.001653 -12.465400   0.000849  -0.001885 -29.472400   5.012370  -8.788640 -24.429100   0.003637  -0.002138 -17.100400   0.005905  -0.001445 -28.665200   2.309450  -4.215830 -40.247300   0.003361  -0.000728 -26.804700   0.000414   0.002001 -28.530200   1.808020  -3.321620 -37.160000  -0.000277   0.004446 -24.748600   0.000102   0.003466 -32.343300   0.813264  -1.283950 -48.528700   0.002888   0.000927 -32.320000   0.000593  -0.002446   7.757960  -3.523430  10.404200  52.642000  22.616800  26.970800 -31.561600 -18.324700  69.556200 -21.471700 -36.363900  -6.933430 -54.593000  31.611600  51.795100 -12.571500  -0.002796  -0.000631 -11.285800  -0.004590  -0.001381   9.617350   0.101627   0.602696   7.869090   0.000739  -0.002320   5.508360   0.000315  -0.001849   6.619030   0.069373   0.606713   6.619260   0.003445  -0.003651   4.408410   0.002391  -0.002811   5.839260  -0.509264  -5.033120   5.862130   0.009897  -0.006946   3.904190   0.005861  -0.005487  14.319900  -1.341990  -5.259240  21.574000   0.001743  -0.001949  14.368200   0.005129  -0.009615   3.136320  19.763400   5.709180   0.079339   0.111448   6.555890  -0.752757  -3.573990   1.133600  -0.000000   0.000000  -0.000000   3.788550  17.293000  -0.381981  -1.537010   4.929890  -7.699750   1.334540  -5.149300   1.172000   0.000000   0.000000  -0.000000
  2.088020  89.444300  -0.241821  -5.908050 -16.669400  -5.451670   0.659737   9.866480   2.951860   0.812750  19.753800   5.921280   2.491220   1.255140  -0.054530   4.098110   2.530600  -2.914900  -2.255880  -3.241260   0.619069 -70.405500  27.131000  -5.685440  -2.704110  -7.718480 -16.152100  14.668900  -9.776230   4.235450  35.189100  29.124900 -61.047300 -34.955600   0.002366   0.001708 -12.477800   0.000893  -0.001913 -29.528100   5.026680  -8.797480 -24.476600   0.003626  -0.002121 -17.133600   0.005951  -0.001410 -28.666500   2.323270  -4.240540 -40.325300   0.003324  -0.000726 -26.856700   0.000389   0.001974 -28.534600   1.814840  -3.333410 -37.227900  -0.000244   0.004438 -24.793800   0.000155   0.003504 -32.376500   0.806601  -1.271870 -48.578200   0.002902   0.000954 -32.353000   0.000589  -0.002405   7.784210  -3.543590  10.373300  52.719200  22.628000  26.827900 -31.540700 -18.386600  69.603400 -21.575000 -36.410400  -7.060650 -54.890700  31.867300  52.051500 -12.047700  -0.007512  -0.001784 -11.023900  -0.005810  -0.001379   9.806420   0.109129   0.634283   8.023340   0.000985  -0.002259   5.616340   0.000449  -0.001798   6.895840   0.093447   0.711372   6.895790   0.003416  -0.003715   4.592570   0.002220  -0.002856   6.283970  -0.566874  -5.300090   6.309900   0.010358  -0.007175   4.202390   0.006106  -0.005679  14.374600  -1.395240  -5.531570  21.664900   0.006453  -0.007506  14.428700   0.005281  -0.010094   3.136470  19.685900   5.683600   0.070496   0.083364   6.571000  -0.758455  -3.553960   1.071140   0.000000   0.000000   0.000000   3.787540  17.219700  -0.363326  -1.523820   4.929390  -7.763530   1.325990  -5.128550   1.153070  -0.000000   0.000000   0.000000
  2.094460  89.451800  -0.256940  -5.889570 -16.591600  -5.388250   0.673689   9.820500   2.955930   0.842497  19.662600   5.926660   2.449540   1.198320  -0.051228   4.029110   2.416790  -2.950320  -2.281710  -3.249780   0.625780 -70.421800  27.162600  -5.668990  -2.636640  -7.668630 -16.163500  14.793800  -9.800720   4.297820  35.169300  29.123400 -61.067400 -34.980400   0.002430   0.001763 -12.490200   0.000939  -0.001937 -29.635100   5.062440  -8.817210 -24.566400   0.003617  -0.002103 -17.196500   0.005997  -0.001375 -28.671200   2.345300  -4.279770 -40.509200   0.003288  -0.000724 -26.979100   0.000366   0.001948 -28.544400   1.826000  -3.352510 -37.369100  -0.000211   0.004428 -24.887800   0.000210   0.003544 -32.444300   0.792968  -1.247210 -48.679400   0.002917   0.000981 -32.420400   0.000585  -0.002364   7.832030  -3.570820  10.347900  52.826600  22.637600  26.606700 -31.508000 -18.455100  69.657000 -21.735000 -36.486200  -7.261870 -55.294000  32.308700  52.797200 -10.893800  -0.019441  -0.003660 -10.446900  -0.010156  -0.001378  10.214900   0.136451   0.779769   8.358070   0.001116  -0.002059   5.850650   0.000518  -0.001626   7.472640   0.117518   0.864977   7.473050   0.003325  -0.003747   4.977030   0.001728  -0.002877   7.175780  -0.697517  -5.618530   7.209050   0.010622  -0.007301   4.801200   0.006257  -0.005789  14.632500  -1.555150  -6.024760  22.073900   0.011114  -0.013063  14.701200   0.005462  -0.010392   3.140120  19.608400   5.670040   0.064169   0.041600   6.578810  -0.763816  -3.523810   1.016350   0.000000   0.000000   0.000000   3.791600  17.125800  -0.332858  -1.516900   4.930330  -7.828570   1.312120  -5.120730   1.135260  -0.000000   0.000000   0.000000
